<?xml version="1.0" standalone="no"?>
<!DOCTYPE svg PUBLIC "-//W3C//DTD SVG 20010904//EN"
 "http://www.w3.org/TR/2001/REC-SVG-20010904/DTD/svg10.dtd">
<svg version="1.0" xmlns="http://www.w3.org/2000/svg"
 width="591.000000pt" height="422.000000pt" viewBox="0 0 591.000000 422.000000"
 preserveAspectRatio="xMidYMid meet">

<g transform="translate(0.000000,422.000000) scale(0.100000,-0.100000)"
fill="#000000" stroke="none">
<path d="M2825 3310 c-84 -5 -126 -13 -175 -32 -36 -14 -83 -32 -104 -38 -21
-7 -80 -32 -130 -55 -50 -23 -102 -45 -116 -50 -144 -42 -273 -156 -300 -265
-5 -22 -15 -59 -21 -82 -13 -54 -2 -268 17 -313 7 -17 20 -37 28 -45 9 -7 16
-23 16 -35 0 -33 48 -124 84 -160 17 -17 39 -46 49 -65 15 -27 20 -31 28 -19
7 12 9 11 9 -3 0 -9 10 -24 23 -34 12 -9 15 -14 6 -11 -9 3 -22 1 -29 -3 -20
-12 14 -120 39 -127 17 -4 59 -63 45 -63 -3 0 2 -8 13 -17 10 -10 12 -14 3 -9
-8 5 -4 -2 10 -16 l25 -25 3 46 c2 24 -4 110 -12 189 -9 79 -14 148 -10 153
11 18 21 -1 34 -63 13 -67 39 -126 64 -147 9 -7 13 -18 10 -23 -4 -6 3 -8 17
-4 13 3 18 3 12 0 -7 -3 -13 -10 -13 -16 0 -5 6 -8 13 -5 6 2 22 0 35 -4 12
-5 22 -5 22 -1 0 4 20 8 45 10 26 2 57 7 70 12 40 15 107 -20 76 -39 -7 -5
-14 -45 -17 -96 l-6 -88 49 6 c58 7 133 29 133 39 0 5 -6 8 -12 8 -7 0 -30 16
-50 35 -21 19 -38 28 -38 21 0 -19 -25 -27 -39 -13 -16 16 -14 42 4 57 16 14
21 55 5 45 -5 -3 -10 0 -10 9 0 8 -4 16 -9 18 -5 2 -3 9 5 16 12 11 17 8 27
-18 l13 -30 13 24 c8 13 14 60 16 103 2 96 24 156 56 151 25 -3 27 -7 70 -106
38 -87 92 -132 161 -132 50 0 155 26 186 47 30 18 58 82 67 148 4 28 9 58 12
68 5 20 39 23 46 4 6 -16 3 -100 -8 -229 -5 -58 -4 -88 3 -88 16 0 72 96 77
130 1 8 5 25 9 37 4 12 2 24 -4 28 -32 20 10 75 57 75 16 0 23 6 23 19 0 13
-7 18 -22 17 -11 0 -23 5 -26 13 -3 10 3 13 27 9 41 -6 54 11 53 67 -1 25 3
57 8 70 6 16 6 27 -1 31 -7 4 1 15 19 26 17 11 33 27 36 36 4 15 1 98 -4 112
-1 3 -1 22 0 43 1 20 -3 37 -8 37 -21 0 -22 35 -2 62 11 15 20 36 20 47 0 33
-21 70 -36 64 -8 -3 -21 -3 -29 0 -12 5 -12 11 1 44 10 23 12 39 6 41 -6 2
-22 14 -37 28 -14 13 -33 24 -41 24 -7 0 -14 4 -14 9 0 12 -74 41 -105 41 -15
0 -29 9 -37 24 -43 78 -53 94 -75 124 -13 18 -28 30 -32 28 -4 -3 -21 9 -37
26 -57 60 -101 65 -389 48z m232 -504 c11 3 24 1 27 -5 9 -13 85 -14 105 -2 9
6 22 6 31 1 19 -10 70 -101 70 -125 0 -9 7 -23 16 -32 10 -10 12 -19 5 -26 -6
-6 -3 -22 10 -46 10 -19 19 -44 19 -55 0 -10 9 -50 21 -88 11 -39 18 -72 15
-75 -2 -3 -23 -2 -46 2 -33 6 -40 10 -35 25 4 13 -5 23 -37 40 -37 19 -51 21
-122 15 -86 -7 -102 -14 -157 -66 -70 -67 -78 -71 -130 -75 -53 -4 -63 1 -103
57 -26 37 -79 53 -175 56 -90 2 -96 0 -137 -28 -49 -33 -54 -35 -54 -14 0 8 6
15 14 15 8 0 13 9 12 23 -1 12 7 30 18 40 14 12 15 17 5 17 -10 1 -9 4 4 11 9
5 17 17 17 25 0 8 4 13 9 10 5 -3 11 5 13 19 4 20 2 23 -11 15 -17 -9 -17 -8
-12 63 0 10 12 22 26 27 14 5 25 16 25 23 0 8 12 23 26 33 14 10 30 29 35 42
5 13 13 20 19 17 5 -3 10 -2 10 4 0 9 47 24 80 26 8 0 20 4 27 8 10 6 106 -4
138 -15 6 -1 37 5 70 15 33 11 71 22 85 26 14 4 30 4 36 0 5 -5 19 -6 31 -3z
m-1061 -137 l-14 -34 -1 33 c-1 18 5 41 12 53 12 19 12 19 15 1 2 -11 -4 -35
-12 -53z m422 -190 c-18 -12 -23 16 -6 35 11 12 13 11 16 -6 2 -12 -2 -25 -10
-29z m822 -109 c0 -5 -7 -10 -15 -10 -8 0 -15 5 -15 10 0 6 7 10 15 10 8 0 15
-4 15 -10z m120 -50 c0 -5 -7 -10 -15 -10 -8 0 -15 5 -15 10 0 6 7 10 15 10 8
0 15 -4 15 -10z m-1005 -40 c-3 -5 -10 -10 -16 -10 -5 0 -9 5 -9 10 0 6 7 10
16 10 8 0 12 -4 9 -10z"/>
<path d="M2461 2574 c0 -11 3 -14 6 -6 3 7 2 16 -1 19 -3 4 -6 -2 -5 -13z"/>
<path d="M2395 1710 c3 -5 8 -10 11 -10 2 0 4 5 4 10 0 6 -5 10 -11 10 -5 0
-7 -4 -4 -10z"/>
<path d="M2721 1696 c-44 -23 -44 -33 -1 -41 11 -2 20 2 20 8 0 7 4 6 10 -3 8
-11 12 -12 18 -3 7 11 66 20 137 23 15 0 17 2 6 9 -7 5 -33 7 -57 6 -33 -3
-44 0 -44 11 0 21 -39 16 -89 -10z"/>
<path d="M2943 1704 c-9 -9 3 -13 50 -17 34 -3 63 -5 64 -4 1 1 -22 9 -51 18
-40 12 -55 13 -63 3z"/>
<path d="M3340 1674 c-6 -14 -10 -29 -10 -33 0 -4 -16 -33 -35 -65 -24 -40
-35 -71 -35 -97 0 -94 -64 -280 -136 -396 -64 -102 -86 -119 -176 -127 -112
-11 -111 -10 -82 -53 13 -20 23 -41 21 -47 -4 -12 -102 -15 -113 -4 -3 4 -6
25 -6 47 1 30 -6 48 -26 70 -15 16 -28 35 -30 42 -2 7 -11 24 -21 38 -19 27
-61 106 -61 116 0 15 53 1 91 -25 48 -33 81 -41 59 -15 -24 29 -4 45 57 45
l58 1 -58 55 -58 54 78 37 78 37 -45 7 c-25 4 -65 5 -90 2 -36 -4 -52 0 -80
19 -19 13 -47 29 -62 35 -16 7 -28 17 -28 23 0 5 -7 10 -15 10 -8 0 -15 6 -15
13 0 7 -8 18 -18 26 -13 9 -17 22 -14 42 3 24 1 28 -12 23 -9 -3 -16 -2 -16 4
0 6 6 12 13 15 6 2 9 8 5 12 -4 4 -14 2 -22 -4 -8 -7 -19 -10 -25 -7 -5 4 -12
-2 -14 -11 -2 -10 -3 -8 -2 5 2 21 -4 26 -35 23 -12 -1 -11 1 3 12 9 8 17 20
17 28 0 8 -6 6 -15 -7 -8 -10 -15 -15 -15 -10 0 5 -6 3 -14 -3 -11 -9 -15 -8
-20 4 -4 11 -2 14 7 9 6 -4 2 3 -10 15 -13 12 -23 27 -23 33 0 7 -4 7 -12 0
-7 -5 -56 -22 -108 -37 -117 -34 -109 -30 -255 -133 -66 -47 -153 -101 -195
-120 -177 -81 -237 -112 -262 -134 -35 -30 -76 -129 -138 -329 -40 -127 -53
-189 -61 -274 -21 -241 -29 -300 -83 -572 l-14 -73 127 0 c133 0 164 7 136 30
-10 8 -15 9 -15 1 0 -6 -4 -11 -10 -11 -16 0 -12 30 5 36 8 4 15 16 14 28 l0
21 -9 -21 c-4 -12 -15 -24 -22 -27 -20 -7 -22 47 -4 81 l15 27 -4 -40 c-3 -22
-2 -32 1 -23 7 24 25 23 31 -2 3 -11 10 -17 16 -13 7 4 8 0 4 -12 -6 -14 -3
-16 13 -12 11 3 20 1 20 -4 0 -5 -5 -9 -12 -9 -9 0 -9 -3 -1 -11 6 -6 9 -17 7
-24 -4 -10 18 -13 90 -14 60 -1 96 2 96 9 0 5 -11 10 -24 10 -27 0 -59 31 -38
37 6 3 12 14 11 26 0 21 -1 21 -8 3 -7 -19 -8 -19 -15 0 -4 11 -3 20 3 22 20
7 11 28 -13 30 -15 1 -27 -6 -35 -21 -6 -12 -9 -14 -7 -5 3 10 -2 19 -12 21
-13 4 -13 5 3 6 18 1 21 8 20 50 0 29 -3 44 -8 38 -6 -9 -10 -9 -14 1 -2 6
-11 12 -18 12 -7 0 -16 7 -19 16 -4 9 -2 13 5 8 7 -4 10 -1 7 7 -3 8 -10 13
-16 12 -14 -3 -24 25 -12 32 6 4 10 1 10 -6 0 -6 8 -9 20 -6 15 4 20 0 20 -15
0 -10 4 -16 10 -13 10 6 80 -58 80 -74 0 -6 16 -26 35 -45 19 -20 35 -43 34
-53 0 -17 -1 -17 -12 1 -28 44 -53 65 -68 55 -9 -6 -10 -9 -2 -9 14 0 53 -70
53 -95 0 -9 6 -18 14 -21 8 -3 12 -12 9 -20 -4 -12 26 -14 193 -14 174 0 200
2 217 17 19 17 20 17 14 1 -6 -16 4 -18 118 -17 107 0 124 2 127 17 4 22 78
28 78 6 0 -9 4 -13 9 -9 5 3 12 1 16 -5 3 -5 13 -10 21 -10 12 0 13 4 3 23 -9
18 -9 20 2 10 17 -17 32 -17 24 0 -3 6 2 2 11 -11 16 -21 23 -22 165 -22 145
0 149 1 149 21 0 15 -5 19 -15 15 -14 -5 -16 -1 -19 32 -1 7 -6 16 -11 20 -6
4 -10 17 -11 28 -1 30 23 20 42 -17 17 -34 24 -37 24 -8 0 11 -4 17 -10 14 -5
-3 -12 5 -16 19 -3 13 -15 27 -26 29 -14 4 -19 11 -14 23 3 9 1 23 -5 30 -21
25 5 14 31 -12 17 -19 25 -22 29 -13 2 8 8 16 12 19 4 3 4 12 -2 20 -8 13 -10
13 -19 0 -7 -11 -9 -7 -7 16 l2 32 28 -20 28 -20 17 23 c9 13 16 28 14 32 -1
5 2 6 7 3 5 -3 12 1 15 10 4 9 13 14 22 10 9 -3 12 -2 9 5 -4 6 1 9 11 7 18
-3 20 5 11 44 -1 3 3 6 8 6 6 0 9 -4 8 -9 -4 -14 15 -11 21 4 5 9 7 9 12 0 3
-7 12 -13 20 -13 9 0 14 -11 14 -27 0 -22 2 -25 10 -13 6 9 10 10 10 3 0 -7
-9 -17 -20 -23 -20 -11 -25 -35 -14 -64 3 -9 11 -13 18 -9 6 4 4 -2 -4 -12 -8
-10 -10 -16 -5 -13 6 4 17 3 25 -3 13 -7 12 -9 -2 -9 -18 0 -23 -16 -12 -44 3
-8 12 -12 21 -9 10 4 14 2 12 -6 -3 -7 -8 -12 -13 -11 -11 2 -26 -21 -25 -40
0 -10 3 -8 9 5 7 16 9 12 10 -20 2 -34 3 -36 9 -15 7 25 8 24 15 -7 l8 -33
400 0 c396 0 400 0 395 20 -3 11 -1 18 4 14 5 -3 9 -12 9 -20 0 -12 51 -14
344 -14 l345 0 -25 70 c-13 38 -24 76 -24 85 0 8 -5 15 -11 15 -5 0 -8 4 -4
10 3 5 -6 32 -20 59 -21 43 -25 64 -25 142 0 100 -15 169 -37 169 -8 0 -11 -5
-7 -12 4 -7 3 -8 -5 -4 -6 4 -9 16 -6 25 3 10 -3 29 -14 42 -13 17 -16 29 -10
40 6 12 4 19 -7 23 -10 4 -14 14 -12 24 4 12 -1 18 -13 18 -19 0 -26 -11 -11
-18 4 -1 -1 -11 -11 -22 -19 -18 -19 -18 -15 17 3 31 1 36 -22 41 -16 3 -29
-1 -37 -12 -10 -11 -13 -12 -13 -2 0 9 -6 8 -21 -6 -22 -19 -22 -19 -10 4 11
21 9 27 -26 58 -21 19 -30 32 -20 29 10 -4 17 -2 17 4 0 6 -5 11 -10 11 -13 0
10 38 26 42 6 2 8 11 5 21 -6 15 -14 8 -45 -37 -21 -31 -40 -56 -43 -56 -6 0
5 18 34 56 13 17 23 35 23 40 0 5 7 22 15 38 13 25 13 28 -1 22 -9 -3 -18 -6
-20 -6 -2 0 -4 -7 -4 -15 0 -8 -9 -19 -20 -25 -11 -6 -20 -18 -20 -26 0 -8 -5
-12 -10 -9 -7 4 -6 14 2 28 10 19 9 20 -4 10 -11 -10 -17 -10 -26 -1 -20 20
-14 28 18 24 17 -2 30 1 30 5 0 5 -12 9 -27 9 -25 0 -26 1 -8 14 11 8 16 19
12 30 -4 9 -3 16 1 16 4 0 13 10 21 21 12 20 11 21 -8 16 -12 -3 -21 -4 -21
-2 0 10 74 90 81 88 5 -2 9 6 9 16 0 28 19 36 35 15 14 -18 14 -18 15 4 0 37
-29 92 -46 85 -10 -3 -12 0 -8 10 8 21 -39 54 -181 127 -216 112 -252 129
-488 220 -127 50 -242 95 -255 100 -34 15 -42 12 -52 -16z m930 -492 c0 -2 -7
-10 -15 -18 -8 -8 -12 -21 -9 -29 7 -18 24 -10 24 11 0 8 5 14 11 14 5 0 7 4
4 10 -3 6 1 7 9 4 9 -3 16 -1 16 5 0 6 4 11 10 11 9 0 -56 -89 -116 -158 -23
-26 -33 -32 -39 -22 -5 9 -4 11 3 6 14 -9 16 16 3 30 -5 5 -14 32 -19 61 -7
39 -6 50 3 46 7 -2 11 -12 8 -22 -3 -11 2 -21 11 -24 9 -4 16 -1 17 6 0 7 4 2
9 -10 5 -13 14 -23 19 -23 6 0 3 16 -5 36 -8 20 -13 39 -10 42 3 3 6 0 6 -7 0
-7 5 -9 10 -6 8 5 8 11 0 20 -8 10 -7 14 2 18 15 5 48 5 48 -1z m-1740 -84 c7
-35 17 -68 21 -74 5 -6 7 -13 4 -16 -3 -3 1 -11 10 -18 8 -7 14 -22 14 -34 -1
-15 -3 -16 -6 -4 -2 9 -15 19 -28 22 -23 6 -27 19 -12 44 5 7 3 12 -3 12 -7 0
-9 8 -5 20 4 11 2 20 -4 20 -6 0 -11 -5 -11 -11 0 -5 -4 -7 -10 -4 -5 3 -10
11 -10 16 0 6 5 7 10 4 7 -4 9 10 6 39 -5 66 9 56 24 -16z m-770 12 c0 -5 -4
-10 -10 -10 -5 0 -10 5 -10 10 0 6 5 10 10 10 6 0 10 -4 10 -10z m2390 -34 c0
-5 -7 -1 -15 10 -8 10 -14 24 -14 29 0 6 6 1 14 -9 8 -11 15 -24 15 -30z
m-1650 30 c0 -3 -4 -8 -10 -11 -5 -3 -10 -1 -10 4 0 6 5 11 10 11 6 0 10 -2
10 -4z m-210 -121 c-7 -33 -14 -73 -16 -90 -4 -36 -22 -95 -23 -77 -1 7 -5 11
-10 7 -5 -3 -12 -1 -15 4 -3 5 1 11 9 15 8 3 12 11 9 19 -2 7 -1 25 5 39 5 13
6 30 1 37 -4 7 -1 26 7 42 8 16 15 43 15 61 0 18 6 39 12 47 17 22 20 -31 6
-104z m-500 85 c0 -5 -5 -10 -11 -10 -5 0 -7 5 -4 10 3 6 8 10 11 10 2 0 4 -4
4 -10z m342 -20 c14 0 3 -153 -12 -178 -10 -15 -10 -14 -5 4 3 12 1 33 -4 47
-8 19 -7 27 5 31 8 3 14 13 14 23 0 14 -2 15 -9 4 -5 -7 -11 -9 -14 -4 -3 5
-2 15 4 23 12 21 11 41 -2 38 -6 -2 -14 3 -17 11 -3 10 0 12 12 8 10 -4 22 -7
28 -7z m-307 -35 c11 -19 16 -37 12 -41 -4 -4 -7 0 -7 8 0 8 -9 27 -21 42 -11
14 -16 26 -11 26 5 0 17 -16 27 -35z m675 -15 c0 -11 -4 -20 -10 -20 -5 0 -10
9 -10 20 0 11 5 20 10 20 6 0 10 -9 10 -20z m1714 -15 c-9 -14 -18 -25 -21
-25 -5 0 5 18 20 38 17 22 18 13 1 -13z m-1824 6 c0 -23 -14 -41 -31 -41 -19
0 -27 29 -12 43 10 10 43 8 43 -2z m1766 -28 c-10 -10 -19 5 -10 18 6 11 8 11
12 0 2 -7 1 -15 -2 -18z m-1509 -26 c20 -19 34 -40 31 -47 -3 -9 -17 -2 -46
24 -23 21 -42 42 -42 47 0 17 21 9 57 -24z m1423 -1 c0 -3 -4 -8 -10 -11 -5
-3 -10 -1 -10 4 0 6 5 11 10 11 6 0 10 -2 10 -4z m-1532 -18 c19 -19 14 -46
-10 -59 -18 -10 -24 -8 -40 11 -31 38 15 83 50 48z m-438 -8 c0 -5 -5 -10 -11
-10 -5 0 -7 5 -4 10 3 6 8 10 11 10 2 0 4 -4 4 -10z m310 -14 c0 -8 5 -27 12
-43 6 -15 12 -30 13 -33 0 -3 7 -15 14 -28 12 -22 11 -23 -8 -12 -12 6 -21 18
-21 26 0 8 -4 12 -10 9 -6 -3 -7 1 -4 9 3 9 1 16 -4 16 -6 0 -12 -6 -15 -12
-2 -7 -2 -2 0 10 2 15 0 21 -7 17 -13 -8 -9 37 5 47 16 12 25 9 25 -6z m1816
-38 c3 -11 2 -23 -4 -27 -6 -3 -14 -19 -17 -34 -4 -15 -11 -27 -17 -27 -5 0
-7 8 -4 18 18 60 18 72 2 66 -18 -7 -21 7 -5 23 15 15 37 6 45 -19z m-1639
-10 c-3 -8 -6 -5 -6 6 -1 11 2 17 5 13 3 -3 4 -12 1 -19z m-477 -13 c0 -8 -4
-15 -10 -15 -5 0 -10 7 -10 15 0 8 5 15 10 15 6 0 10 -7 10 -15z m1221 -6 c9
-17 8 -25 -5 -37 -12 -13 -18 -13 -30 -2 -9 7 -16 23 -16 36 0 31 35 33 51 3z
m833 -16 c-8 -33 -22 -52 -19 -26 2 20 15 53 21 53 3 0 1 -12 -2 -27z m-1938
-30 c-10 -10 -19 5 -10 18 6 11 8 11 12 0 2 -7 1 -15 -2 -18z m264 -23 c0 -5
-5 -10 -11 -10 -5 0 -7 5 -4 10 3 6 8 10 11 10 2 0 4 -4 4 -10z m1834 -47 c-7
-26 -38 -24 -42 3 -3 16 -1 17 7 4 9 -13 12 -11 17 8 4 13 10 20 15 15 5 -5 6
-18 3 -30z m66 -37 c0 -3 -4 -8 -10 -11 -5 -3 -10 -1 -10 4 0 6 5 11 10 11 6
0 10 -2 10 -4z m110 -26 c0 -5 -9 -10 -20 -10 -11 0 -20 5 -20 10 0 6 9 10 20
10 11 0 20 -4 20 -10z m-2182 -31 c2 -15 -4 -31 -13 -39 -13 -11 -19 -11 -32
3 -14 13 -15 21 -5 42 15 34 46 30 50 -6z m2172 -14 c0 -8 -4 -15 -10 -15 -5
0 -7 7 -4 15 4 8 8 15 10 15 2 0 4 -7 4 -15z m17 -32 c-3 -10 -5 -4 -5 12 0
17 2 24 5 18 2 -7 2 -21 0 -30z m-1194 -10 c-4 -10 -9 -11 -19 -2 -18 15 -18
15 5 15 11 0 17 -5 14 -13z m41 -15 c-4 -6 0 -16 8 -22 8 -6 19 -22 23 -36 6
-19 0 -16 -22 15 -27 36 -34 73 -12 59 5 -3 6 -10 3 -16z m-1384 -38 c0 -5 -5
-10 -11 -10 -5 0 -7 5 -4 10 3 6 8 10 11 10 2 0 4 -4 4 -10z m-287 -111 c16 1
36 -12 31 -20 -8 -13 -54 21 -53 40 0 13 2 13 8 -2 4 -10 10 -18 14 -18z m54
-11 c-3 -8 -6 -5 -6 6 -1 11 2 17 5 13 3 -3 4 -12 1 -19z m152 -3 c3 -17 2
-17 -13 -3 -19 20 -21 31 -3 26 6 -3 14 -13 16 -23z m-149 -25 c0 -5 -2 -10
-4 -10 -3 0 -8 5 -11 10 -3 6 -1 10 4 10 6 0 11 -4 11 -10z m-60 -15 c33 -19
10 -19 -26 0 -16 8 -22 15 -14 15 8 -1 26 -7 40 -15z m120 -3 c0 -4 -9 -8 -19
-8 -15 0 -17 3 -9 13 10 12 28 9 28 -5z m1255 8 c3 -5 1 -10 -4 -10 -6 0 -11
5 -11 10 0 6 2 10 4 10 3 0 8 -4 11 -10z m-1310 -30 c4 -6 12 -10 18 -9 7 1
21 1 32 0 16 -1 17 -3 5 -10 -8 -6 -17 -8 -20 -6 -3 2 -6 -8 -6 -21 -1 -13 2
-21 7 -18 5 3 6 -2 2 -12 -5 -15 -7 -15 -15 0 -5 9 -6 21 -3 27 4 6 -2 13 -14
16 -11 3 -18 9 -15 14 3 5 -2 9 -10 9 -9 0 -16 5 -16 10 0 13 27 13 35 0z
m150 -40 c3 -5 -1 -10 -10 -10 -9 0 -13 5 -10 10 3 6 8 10 10 10 2 0 7 -4 10
-10z m-65 -104 c0 -5 -9 -1 -20 9 -11 10 -20 25 -20 34 0 12 6 9 20 -9 11 -14
20 -29 20 -34z m29 10 c-3 -3 -11 5 -18 17 -13 21 -12 21 5 5 10 -10 16 -20
13 -22z m1986 -50 c-4 -12 -8 -36 -9 -53 -1 -18 -5 -36 -9 -39 -9 -9 -57 46
-57 65 0 7 -6 11 -15 8 -8 -4 -17 -2 -21 4 -8 14 15 39 31 33 7 -3 21 6 32 20
l18 25 18 -21 c12 -14 16 -29 12 -42z m-2310 24 c3 -5 1 -10 -4 -10 -6 0 -11
5 -11 10 0 6 2 10 4 10 3 0 8 -4 11 -10z m323 -15 c-3 -3 -9 2 -12 12 -6 14
-5 15 5 6 7 -7 10 -15 7 -18z m-278 6 c0 -17 -18 -21 -24 -6 -3 9 0 15 9 15 8
0 15 -4 15 -9z m523 -6 c-3 -9 -8 -14 -10 -11 -3 3 -2 9 2 15 9 16 15 13 8 -4z
m-432 -46 c-9 -22 -10 -22 -10 -3 -1 11 2 24 6 27 12 12 14 0 4 -24z m1756
-11 c-3 -7 -5 -2 -5 12 0 14 2 19 5 13 2 -7 2 -19 0 -25z"/>
<path d="M4226 1125 c4 -8 8 -15 10 -15 2 0 4 7 4 15 0 8 -4 15 -10 15 -5 0
-7 -7 -4 -15z"/>
<path d="M2355 981 c-3 -5 -1 -12 5 -16 5 -3 10 1 10 9 0 18 -6 21 -15 7z"/>
<path d="M2840 1590 c-13 -9 -13 -10 0 -11 8 0 25 -2 38 -5 12 -2 22 1 22 6 0
6 -4 10 -9 10 -5 0 -15 2 -23 5 -7 3 -20 0 -28 -5z"/>
<path d="M4332 1100 c0 -14 2 -19 5 -12 2 6 2 18 0 25 -3 6 -5 1 -5 -13z"/>
<path d="M2755 1080 c3 -5 8 -10 11 -10 2 0 4 5 4 10 0 6 -5 10 -11 10 -5 0
-7 -4 -4 -10z"/>
<path d="M4370 1069 c0 -5 5 -7 10 -4 6 3 10 8 10 11 0 2 -4 4 -10 4 -5 0 -10
-5 -10 -11z"/>
<path d="M4265 1050 c-3 -5 -1 -10 4 -10 6 0 11 5 11 10 0 6 -2 10 -4 10 -3 0
-8 -4 -11 -10z"/>
<path d="M4395 1040 c-3 -5 -1 -10 4 -10 6 0 11 5 11 10 0 6 -2 10 -4 10 -3 0
-8 -4 -11 -10z"/>
<path d="M2815 930 c3 -5 8 -10 11 -10 2 0 4 5 4 10 0 6 -5 10 -11 10 -5 0 -7
-4 -4 -10z"/>
<path d="M4410 880 c0 -5 5 -10 11 -10 5 0 7 5 4 10 -3 6 -8 10 -11 10 -2 0
-4 -4 -4 -10z"/>
<path d="M4411 844 c0 -11 3 -14 6 -6 3 7 2 16 -1 19 -3 4 -6 -2 -5 -13z"/>
<path d="M4321 814 c0 -11 3 -14 6 -6 3 7 2 16 -1 19 -3 4 -6 -2 -5 -13z"/>
<path d="M4345 800 c3 -5 8 -10 11 -10 2 0 4 5 4 10 0 6 -5 10 -11 10 -5 0 -7
-4 -4 -10z"/>
<path d="M4378 788 c-3 -7 2 -19 9 -27 19 -18 22 -11 7 17 -8 16 -13 19 -16
10z"/>
<path d="M4435 760 c-8 -13 21 -48 31 -38 3 4 -1 16 -9 28 -10 15 -17 18 -22
10z"/>
<path d="M1673 203 c6 -18 15 -33 19 -33 14 0 9 17 -12 41 l-19 24 12 -32z"/>
<path d="M2948 3 c7 -3 16 -2 19 1 4 3 -2 6 -13 5 -11 0 -14 -3 -6 -6z"/>
</g>
</svg>
